<svg xmlns="http://www.w3.org/2000/svg" width="32" height="32" viewBox="0 0 32 32" fill="none">
  <rect width="32" height="32" rx="8" fill="#2563EB"/>
  <g transform="translate(4, 4)" stroke="white" stroke-width="1.8" stroke-linecap="round" stroke-linejoin="round" fill="none">
    <path d="M2 4.5C2 3.4 2.9 2.5 4 2.5h4.5c1.1 0 2.5.7 3.5 1.7 1-1 2.4-1.7 3.5-1.7H20c1.1 0 2 .9 2 2v14c0 1.1-.9 2-2 2h-5c-1.1 0-2.5.7-3.5 1.7-1-1-2.4-1.7-3.5-1.7H4c-1.1 0-2-.9-2-2V4.5z"/>
    <path d="M12 4.2v17.5"/>
  </g>
</svg>
